<?xml version="1.0" encoding="UTF-8" standalone="no"?>
<!-- Creator: CorelDRAW 2017 -->

<svg
   xmlns:dc="http://purl.org/dc/elements/1.1/"
   xmlns:cc="http://creativecommons.org/ns#"
   xmlns:rdf="http://www.w3.org/1999/02/22-rdf-syntax-ns#"
   xmlns:svg="http://www.w3.org/2000/svg"
   xmlns="http://www.w3.org/2000/svg"
   xmlns:sodipodi="http://sodipodi.sourceforge.net/DTD/sodipodi-0.dtd"
   xmlns:inkscape="http://www.inkscape.org/namespaces/inkscape"
   xml:space="preserve"
   width="92.64mm"
   height="92.64mm"
   version="1.1"
   style="shape-rendering:geometricPrecision; text-rendering:geometricPrecision; image-rendering:optimizeQuality; fill-rule:evenodd; clip-rule:evenodd"
   viewBox="0 0 9264 9264"
   sodipodi:docname="Старый рубин.svg"
   inkscape:version="0.92.1 r15371"
   id="svg45"><metadata
     id="metadata49"><rdf:RDF><cc:Work
         rdf:about=""><dc:format>image/svg+xml</dc:format><dc:type
           rdf:resource="http://purl.org/dc/dcmitype/StillImage" /><dc:title /></cc:Work></rdf:RDF></metadata><sodipodi:namedview
     pagecolor="#ffffff"
     bordercolor="#666666"
     borderopacity="1"
     objecttolerance="10"
     gridtolerance="10"
     guidetolerance="10"
     inkscape:pageopacity="0"
     inkscape:pageshadow="2"
     inkscape:window-width="1366"
     inkscape:window-height="705"
     id="namedview47"
     showgrid="false"
     inkscape:zoom="0.33701245"
     inkscape:cx="222.73127"
     inkscape:cy="134.39092"
     inkscape:window-x="-8"
     inkscape:window-y="-8"
     inkscape:window-maximized="1"
     inkscape:current-layer="svg45" /><defs
     id="defs9"><style
       type="text/css"
       id="style2"><![CDATA[
    .fil2 {fill:none}
    .fil0 {fill:black}
    .fil3 {fill:#262324}
    .fil4 {fill:#2B2A29}
    .fil11 {fill:#58595B}
    .fil12 {fill:#7EA6CC}
    .fil9 {fill:#BBBDC0}
    .fil10 {fill:#E6E7E8}
    .fil7 {fill:#ED1C24}
    .fil5 {fill:#FFED00}
    .fil1 {fill:yellow}
    .fil8 {fill:white}
    .fil6 {fill:url(#id0)}
   ]]></style><linearGradient
       id="id0"
       gradientUnits="userSpaceOnUse"
       x1="3947.29"
       y1="2775.12"
       x2="5315.17"
       y2="2775.12"><stop
         offset="0"
         style="stop-opacity:1; stop-color:#B99E5E"
         id="stop4" /><stop
         offset="1"
         style="stop-opacity:1; stop-color:#907625"
         id="stop6" /></linearGradient></defs><g
     id="Layer_x0020_1"><metadata
       id="CorelCorpID_2Corel-Layer" /></g><g
     id="g4547"><g
       id="Слой_x0020_1"><metadata
         id="CorelCorpID_0Corel-Layer" /><g
         id="_245040448"><path
           inkscape:connector-curvature="0"
           d="M4632 1.79c-2557.05,0 -4630.21,2073.15 -4630.21,4630.21 0,2557.05 2073.16,4630.21 4630.21,4630.21 2557.06,0 4630.21,-2073.16 4630.21,-4630.21 0,-2557.06 -2073.15,-4630.21 -4630.21,-4630.21z"
           class="fil0"
           id="path7" /><path
           style="fill:#fdce01;fill-opacity:1"
           inkscape:connector-curvature="0"
           d="M4632 280.85c-2402.68,0 -4352.14,1948.47 -4352.14,4352.14 0,2402.68 1948.47,4352.14 4352.14,4352.14 2402.68,0 4352.14,-1948.47 4352.14,-4352.14 0,-2402.68 -1948.47,-4352.14 -4352.14,-4352.14zm0 153.38c-2318.57,0 -4198.75,1880.19 -4198.75,4198.76 0,2318.57 1880.18,4198.75 4198.75,4198.75 2318.57,0 4198.76,-1880.18 4198.76,-4198.75 0,-2318.57 -1880.19,-4198.76 -4198.76,-4198.76z"
           class="fil1"
           id="path9" /><g
           id="g21"><path
             inkscape:connector-curvature="0"
             d="M4302.48 6515.16c-57.4,5.94 -97.97,29.69 -115.78,81.14 61.35,21.77 124.69,41.56 200.88,46.51 81.14,-1.98 87.08,-77.19 57.4,-77.19 -63.33,5.94 -90.05,-48.49 -142.5,-50.47l0 0.01zm674.88 0c57.4,5.94 97.97,29.69 115.78,81.14 -61.35,21.77 -124.69,41.56 -200.88,46.51 -81.14,-1.98 -87.08,-77.19 -57.4,-77.19 63.33,5.94 90.05,-48.49 142.5,-50.47l0 0.01z"
             class="fil2"
             id="path19" /></g><g
           id="g35" /></g><sodipodi:namedview
         inkscape:current-layer="svg54"
         inkscape:window-maximized="1"
         inkscape:window-y="-8"
         inkscape:window-x="-8"
         inkscape:cy="39.192996"
         inkscape:cx="188.97638"
         inkscape:zoom="0.96956098"
         showgrid="false"
         id="namedview56"
         inkscape:window-height="705"
         inkscape:window-width="1366"
         inkscape:pageshadow="2"
         inkscape:pageopacity="0"
         guidetolerance="10"
         gridtolerance="10"
         objecttolerance="10"
         borderopacity="1"
         bordercolor="#666666"
         pagecolor="#ffffff" /></g><g
       transform="matrix(9.8319169,0,0,9.6009347,-481.96003,-1199.9002)"
       id="g4530"><g
         id="#ffffffff"
         transform="matrix(1.4935701,0,0,1.4935701,116.00255,337.42368)" /><g
         transform="translate(0.23436991,0.94262991)"
         id="g4537"><path
           sodipodi:nodetypes="ccccccccccccc"
           inkscape:connector-curvature="0"
           id="path4506"
           d="m 169.38902,590.51616 c 0.4043,130.36197 104.38838,268.99237 166.01433,302.66705 -2.74967,14.74667 -2.13895,13.73919 -4.5407,25.821 120.70175,77.56623 250.65275,79.89477 388.6449,-5.54076 -2.30086,-8.39699 -3.26915,-13.56717 -5.64845,-22.12328 63.41434,-48.20089 145.83576,-135.80126 159.99825,-300.08873 -19.37699,1.53081 -54.65388,1.55205 -69.71838,0.27161 -7.54971,143.85101 -129.83182,251.4321 -170.40901,258.5905 2.75477,10.3972 2.26461,19.41362 1.38486,31.11323 -85.42279,38.75124 -127.77945,39.1606 -220.34919,0.94454 -2.61194,-10.72761 -3.2826,-16.17192 -0.5,-27.86395 -93.17629,-35.37682 -149.37941,-143.21008 -175.52588,-258.38625 -19.90219,-2.94107 -56.32219,-4.79678 -69.35073,-5.40496 z"
           style="fill:#ff0000;fill-opacity:1;stroke:#000000;stroke-width:1px;stroke-linecap:butt;stroke-linejoin:miter;stroke-opacity:1" /><path
           sodipodi:nodetypes="ccc"
           inkscape:connector-curvature="0"
           id="path4510"
           d="m 335.40335,893.18321 c 0,0 5.9205,-29.59754 10.50434,-51.10461 35.84958,29.15133 68.85794,40.09272 68.85794,40.09272"
           style="fill:none;stroke:#000000;stroke-width:1px;stroke-linecap:butt;stroke-linejoin:miter;stroke-opacity:1" /><path
           sodipodi:nodetypes="ccc"
           inkscape:connector-curvature="0"
           id="path4512"
           d="m 713.8591,891.34017 c 0,0 -5.53494,-24.22727 -11.5219,-51.43828 -19.12266,19.32995 -67.22238,41.32489 -67.22238,41.32489"
           style="fill:none;stroke:#000000;stroke-width:1px;stroke-linecap:butt;stroke-linejoin:miter;stroke-opacity:1" /><path
           sodipodi:nodetypes="ccccc"
           inkscape:connector-curvature="0"
           id="path4518"
           d="m 340.15909,869.97143 c 148.34446,84.2776 221.45395,83.56288 368.16507,-2.85853 2.69491,11.19475 2.81799,13.00335 5.53494,24.22727 -129.97324,84.12201 -247.42132,85.96172 -378.45575,1.84304 2.67516,-14.19864 1.68999,-9.0786 4.75574,-23.21178 z"
           style="fill:#ffffff;stroke:#000000;stroke-width:1px;stroke-linecap:butt;stroke-linejoin:miter;stroke-opacity:1" /><path
           style="fill:#ffffff;stroke:#000000;stroke-width:1px;stroke-linecap:butt;stroke-linejoin:miter;stroke-opacity:1"
           d="m 218.62392,593.68357 c 18.31126,126.44133 69.35329,191.97555 127.28377,248.39503 -2.19076,9.75026 -4.38314,20.76747 -5.7486,27.89283 -90.85275,-83.89194 -130.60203,-160.52118 -144.81071,-277.99201 8.03695,0.53461 15.44977,1.21832 23.27554,1.70415 z"
           id="path4520-6"
           inkscape:connector-curvature="0"
           sodipodi:nodetypes="ccccc" /><path
           sodipodi:nodetypes="ccccc"
           inkscape:connector-curvature="0"
           id="path4522"
           d="M 829.20119,592.48634 C 812.473,725.25997 753.93364,787.87465 702.3372,839.90189 c 2.19076,10.17004 4.38314,20.76747 5.7486,27.89283 76.09849,-76.83142 115.73168,-122.37943 144.81071,-275.54332 -8.03695,0.53461 -15.86955,-0.25089 -23.69532,0.23494 z"
           style="fill:#ffffff;stroke:#000000;stroke-width:1px;stroke-linecap:butt;stroke-linejoin:miter;stroke-opacity:1" /></g><g
         id="g4511"
         transform="matrix(1,0,0,1.1465961,-1124.0331,9.2655416)"><g
           transform="matrix(1.4935701,0,0,1.4935701,116.00255,337.42368)"
           id="#000000ff"><path
             inkscape:connector-curvature="0"
             id="path4503"
             style="fill:#d4aa00"
             d="m 1068.1324,105.44869 c 23.16,-11.829999 50.1,-20.309999 76.15,-14.739999 12.56,5.81 26.66,5.42 39.67,7.97 -0.17,2.779999 -1.97,4.869999 -3.9,6.709999 26.9494,0.76 53.4697,5.76 80.5393,3.19 0.81,7.83 -5.2399,14.92 -13.0199,15.64 0.93,10.12 -9.6699,15.38 -18.2296,16.31 0.31,12.01 -14.1903,14.03 -23.3204,13.26 -5.3601,11.95 -20.5894,12.03 -31.6494,10.23 -2.37,19.81 -28.9,8.44 -40.97,4.33 -5.84,12.57 -21.63,5.01 -30.78,0.84 -4.42,8.04 -15.1,7.83 -21.96,3.23 -10.18,-6.74 -22.5299,-12.33253 -32.6,-16.48 -18.7551,-6.74954 -32.8831,-6.47945 -50.76003,-0.07 -11.6,3.8 -22.34,9.73 -32.47,16.44 -6.83,4.66 -17.77,5.04 -22.08,-3.17 -9.23,4.13 -25.06,11.84 -30.94,-0.86 -11.95,4.31 -38.79,15.48 -40.87,-4.3 -11.09,1.88 -26.36,1.79 -31.75,-10.19 -9.07,0.76 -23.73,-1.23 -23.23,-13.26 -8.59,-0.89 -19.23,-6.17 -18.28,-16.31 -7.78,-0.74 -13.78,-7.73 -12.94,-15.58 27.04,2.44 53.52,-2.48 80.44,-3.24 -1.9,-1.83 -3.69,-3.92 -3.96,-6.649999 22.56,-0.41 43.93,-13.13 66.97,-9.14 17.21,1.87 33.64,8.01 48.97,15.849999"
             sodipodi:nodetypes="cccccccccccccccccccccccccc" /></g><g
           transform="matrix(1.4935701,0,0,1.4935701,116.00255,337.42368)"
           id="#fdce01ff"><path
             id="path4505"
             style="opacity:1;fill:#fdce01"
             d="m 1116.4225,144.00874 c 17.96,8.7 36.76,16.03 56.42,19.78 0.032,8.83569 -8.73,11.1 -15.34,9.68 -22.47,-3.59 -43.06,-14.56 -61.97,-26.77 6.9,1.41 15.18,2.38 20.89,-2.69 z m -187.53,0 c 5.66,5.13 13.97,4.06 20.86,2.69 -19.11,12.24 -39.82,23.44 -62.52,26.86 -6.52,1.38 -14.77097,-0.93715 -14.78,-9.81 19.68,-3.68 38.46,-11.08 56.44,-19.74 z m 156.71,-1.07 c 15.41,8.43 29.95,18.57 46.47,24.86 -1.86,5.09 -7.68,6.98 -12.64,5.74 -16.13,-3.25 -29.49,-13.49 -43.89,-20.81 5.21,-0.64 9.01,-4.8 10.06,-9.79 z m -52.99,-0.23 c 25.5,-0.11 47.32,13.95 68.74,25.89 -5.53,9.26 -17.74,5.18 -24.54,-0.26 -13.86,-10.7 -32.72,-11.76 -44.2,-25.63 z m -88.61,25.86 c 21.31,-11.92 43.1,-26.02 68.52,-25.76 -11.37,13.75 -30.05,14.87 -43.84,25.36 -6.82,5.47 -19.13,9.81 -24.68,0.4 z m -30.97,-0.75 c 16.63,-6.28 31.25,-16.49 46.71,-25.02 0.81,5.13 4.8,9.32 10.04,9.91 -14.81,7.56 -28.64,18.2 -45.43,21.02 -4.69,0.95 -9.39,-1.57 -11.32,-5.91 z m 205.12,-27.92 c 7.86,1.59 16.15,2.12 23.85,-0.48 20.34,6.65 41.12,12.71 62.5395,14.37 -4.87,9.44 -16.8895,10.31 -26.2295,9.19 -21.44,-2.8 -41.76,-11 -61.19,-20.19 0.34,-0.96 0.69,-1.93 1.03,-2.89 z m -277.41,13.91 c 21.48,-1.74 42.36,-7.66 62.7,-14.52 7.52,2.92 15.84,2.12 23.59,0.61 0.38,0.96 0.77,1.92 1.17,2.88 -18.48,8.81 -37.77,16.51 -58.08,19.79 -10.15,1.5 -23.89,1.8 -29.38,-8.76 z m 192.52,-18.44 c 17.1,-3.44 35.07,-0.58 50.74,6.92 -0.27,6.18 -6.81,10.5 -12.59,8.29 -12.73,-5.61 -26.51,-9.48 -40.51,-9.26 -0.56,-0.49 -1.68,-1.49 -2.24,-1.98 1.51,-1.35 3.04,-2.68 4.6,-3.97 z m -72.2,7 c 16.82,-7.02 39.76,-14.17 55.75,-2.91 -12.75,3.64 -27.66,3.35 -40.13,9.91 -6.04,4.08 -14.95,0.49 -15.62,-7 z m 184.7281,-9.89476 c 3.2609,1.10666 6.6528,0.84952 9.4319,-1.00524 23.7,5.91 48.1195,11.25 72.6899,9.31 -0.74,12.94 -17.1604,12.14 -26.5904,11.26 -19.8695,-1.91 -39.1395,-7.51 -58.0495,-13.66 1.35,-1.57 2.0381,-3.89476 2.5181,-5.90476 z m -328.3981,8.39476 c 27.85,4.06 54.97,-9.25 81.95,-7.95 0.4,2.02 1.3,3.86 2.63,5.44 -22.83,7.17 -46.4,14.72 -70.58,13.79 -6.43,-0.2 -14.39,-3.73 -14,-11.28 z m 226.2,-14.35 c 12.9,-0.46 25.92,-1.48 38.74,0.57 11.91,2.27 22.4,9.42 34.49,10.91 -1.39,11.8 -16.95,8.38 -24.98,6.32 -17.26,-8.81 -37.17,-14.67 -56.6,-10.6 2.71,-2.48 5.59,-4.77 8.35,-7.2 z m -92.35,4.12 c 15.81,-6.83 33.46,-4.58 50.18,-4.09 3.16,2.05 5.79,4.81 8.71,7.19 -19.37,-3.99 -39.31,1.57 -56.46,10.55 -8.24,2.04 -23.09,5.51 -25.48,-6 8.05,-1.31 15.47,-4.8 23.05,-7.65 z m 210.31,-10.53 c 28.13,1.57 56.3897,7.02 84.6695,4.15 0.4,10.43 -10.9898,14.62 -19.6196,15.09 -23.6204,1.86 -47.0699,-3.57 -69.9299,-8.94 2.91,-2.68 4.55,-6.38 4.88,-10.3 z m -362.46,4.15 c 28.26,2.88 56.5,-2.61 84.61,-4.13 0.4,3.87 2.60256,9.07131 6.50156,11.38544 -26.92808,3.09561 -47.11156,9.38456 -70.33156,7.92456 -8.86,-0.35 -21.34,-4.19 -20.78,-15.18 z m 246.27,0.68 c 30.87,-19.07 66.86,1.86 98.92,6.24 -0.81,12.25 -17.78,8.45 -26.11,7.24 -0.19,-0.48 -0.57,-1.44 -0.75,-1.92 -8.58,-0.51 -16.16,-5.01 -24.19,-7.62 -15.13,-6.39 -31.91,-4.22 -47.87,-3.94 z m -144.5,6.19 c 32.09,-4.22 68.14,-25.34 98.99,-6.17 -12.17,-0.43 -24.43,-1.3 -36.52,0.56 -12.26,2.16 -22.99,9.79 -35.44,10.99 -0.22,0.48 -0.64,1.44 -0.86,1.93 -8.39,1.16 -25.21,4.97 -26.17,-7.31 z m 150.26,-11.8 c 34.97,-19.13 72.7,1.5 109.13,-1.06 1.32,7.78 -8.95,17.63 -15.16,11.4 -31.01,-4.22 -62.14,-21.45 -93.97,-10.34 z m -166.05,-1.06 c 36.26,2.61 73.91,-18.07 108.7,0.96 -31.69,-10.85 -62.71,6.26 -93.58,10.48 -7.27951,3.95716 -16.52,-3.66 -15.12,-11.44 z m 287.87,-10.59 c 16.7416,-1.99963 31.7937,1.74517 49.1854,2.53375 12.7658,1.00175 24.4082,0.13075 37.184,-0.21375 -0.4,6.48 -5.2399,12.31 -11.9699,12.64 -26.6198,2.76 -53.3195,-1.26 -79.7995,-3.78 4.28,-1.71 9.88,-6.57 5.4,-11.18 z m -366.29,3.04 c 20.90858,-0.55425 43.13429,-4.85526 65.64,-3.04 -4.56,4.56 1.09,9.46 5.37,11.18 -26.38,2.49 -52.97,6.51 -79.48,3.82 -6.73,-0.29 -12.19,-5.84975 -12.12,-12.59975 6.86,0.4 13.74,0.25975 20.59,0.63975 z m 249.6,4.81 c 34.67,-20.909999 78.39,-15.24 115.83,-6.61 3.77,5.94 -5.8,9.22 -10.33,9.94 -0.2,-0.56 -0.61,-1.69 -0.81,-2.26 -35.02,3.4 -70.44,-16.669999 -104.69,-1.07 z m -171.87,-8.95 c 34.43,-7.359999 73.37,-9.789999 104.52,8.86 -34.29,-15.489999 -69.71,4.73 -104.72,1.08 -0.13,0.58 -0.37,1.73 -0.5,2.31 -4.69,-0.68 -11.49663,-3.63499 -11.79475,-7.04 -0.0662,-5.42525 8.02475,-4.13 12.49475,-5.21 z m 181.17,1.73 c 23.25,-12.339999 50.06,-21.159999 76.59,-16.719999 12.97,5.929 26.1398,5.9765 40.0841,7.99019 -1.19,4.479999 -5.3841,6.989809 -9.9641,6.509809 -17.48,-0.71 -34.48,-5.8 -51.94,-6.819999 -18.68,-0.85 -36.99,3.909999 -54.77,9.039999 z m -162.27,-16.405249 c 26.54,-4.49 53.16,4.29525 76.51,16.325249 -18.09,-4.99 -36.63,-9.969999 -55.58,-8.919999 -17.11,1.189999 -33.8,5.949999 -50.94,6.769999 -4.58,0.52 -8.89239,-1.56975 -10.52,-6.289749 15.07762,-0.45312 21.16789,-3.70216 40.53,-7.8855 z"
             inkscape:connector-curvature="0"
             sodipodi:nodetypes="cccccccccccccccccccccccccccccccccccccccccccccccccccccccccccccccccccccccccccccccccccccccccccccccccccccccccccccccccccccccccccccccccccccccccc" /></g></g><g
         id="g4510"
         transform="rotate(-90,849.43549,1419.4232)"><g
           id="g4505" /></g><g
         id="g4515"><g
           id="g4519"><path
             style="fill:#fdce01;fill-opacity:1;stroke:#d4aa00;stroke-width:2.5;stroke-linecap:butt;stroke-linejoin:miter;stroke-miterlimit:4;stroke-dasharray:none;stroke-opacity:1"
             d="m 562.30002,528.09975 52.17577,-89.65376 -72.83199,48.79037 35.35534,-98.28784 12.19759,3.53553 4.41941,-73.53911 -40.65864,62.22541 11.49049,4.94974 L 533.5,469 l -0.375,-144.375 13.875,0.25 -21.61966,-73.8123 -22.62742,73.5391 14.39214,-0.0858 -0.25,147.16399 -33.23402,-84.1457 13.43503,-5.65686 L 451.84,323.188 l 4.59743,75.12968 13.25825,-5.3033 35.88567,95.6362 L 429.92,427.839 482.29972,528.09975 h 20 l -23.94199,-41.92405 43.48707,41.36575 42.77996,-35.00179 -22.32474,35.56009 z"
             id="path4502"
             inkscape:connector-curvature="0"
             sodipodi:nodetypes="ccccccccccccccccccccccccccccc" /><path
             style="fill:#fdce01;fill-opacity:1;stroke:#d4aa00;stroke-width:2.5;stroke-linecap:butt;stroke-linejoin:miter;stroke-miterlimit:4;stroke-dasharray:none;stroke-opacity:1"
             d="M 494.5,672 433,778 504,734 468.90901,817.84835 455.44454,812.02513 451,885.5 496,829.5 481.875,822.625 514.5,743 514,879.5 l -17.5,-0.41421 23.5767,82.5 L 542.5,879.5 h -15 l 0.14645,-136.56066 32.97487,79.14645 L 545.5,829.5 593.62132,885.58579 589.5,811.5 l -14,6 L 538.58579,731.64645 615,784 552,667 l -9,17 27.97487,50.62132 -47.31066,-33.33274 v 0 l -47.5533,31.22183 28.71752,-46.03554 z"
             id="path4504"
             inkscape:connector-curvature="0"
             sodipodi:nodetypes="cccccccccccccccccccccccccccccc" /></g></g><path
         id="path4520"
         style="fill:#ff0000;fill-opacity:1;stroke:#770000;stroke-width:1px;stroke-linecap:butt;stroke-linejoin:miter;stroke-opacity:1"
         d="m 562.30002,524.99975 h -20 l 10,40 -30,150 60,-150 z m 20,0 30,40 -90,150 60,-150 -20,-40 z m -80.0003,0 h 40 l 10,40 -30,150 -30,-150 z m -20,0 h 20 l -10,40 30,150 -60,-150 z m -20,0 -30,40 90,150 -60,-150 20,-40 z"
         inkscape:connector-curvature="0" /></g></g></svg>